PathFileType	4	(X/Y/Z)	./resultDataOpenSim/trcMotMarkerGrf/sub09/qtm-12-06.trc
DataRate	CameraRate	NumFrames	NumMarkers	Units	OrigDataRate	OrigDataStartFrame	OrigNumFrames
250.000000	250.000000	13	24	m	250.000000	121	480
Frame#	Time	L.Toe.Tip			R.Toe.Tip			L.Ankle.Lat			R.Ankle.Lat			L.Ankle.Med			R.Ankle.Med			L.Heel			R.Heel			L.Knee.Lat			R.Knee.Lat			L.Knee.Med			R.Knee.Med			L.Thigh.Upper			R.Thigh.Upper			L.ASIS			R.ASIS			V.Sacral			L.Acromium			R.Acromium			C7			L.Elbow			R.Elbow			L.Wrist.Lat			R.Wrist.Lat
		X1	Y1	Z1	X2	Y2	Z2	X3	Y3	Z3	X4	Y4	Z4	X5	Y5	Z5	X6	Y6	Z6	X7	Y7	Z7	X8	Y8	Z8	X9	Y9	Z9	X10	Y10	Z10	X11	Y11	Z11	X12	Y12	Z12	X13	Y13	Z13	X14	Y14	Z14	X15	Y15	Z15	X16	Y16	Z16	X17	Y17	Z17	X18	Y18	Z18	X19	Y19	Z19	X20	Y20	Z20	X21	Y21	Z21	X22	Y22	Z22	X23	Y23	Z23	X24	Y24	Z24

121	0.48	-0.29150414	0.073010137	-0.016399367	-0.6373924	0.039470418	0.10408521	-0.44234205	0.097481998	-0.047205564	-0.78364695	0.056572834	0.13958379	-0.41750235	0.11688229	0.047331839	-0.77460917	0.093670776	0.047754209	-0.50562076	0.053143433	0.0052008736	-0.85327333	0.035202694	0.091664254	-0.42722967	0.51629018	-0.082475205	-0.65516019	0.4994081	0.19638797	-0.42519979	0.51300763	0.04278393	-0.68162599	0.49130682	0.06807153	-0.61350302	0.89305208	-0.12165035	-0.65427469	0.90736494	0.24886324	-0.54490056	0.98208736	-0.057450565	-0.55065343	0.99112412	0.18228107	-0.71301014	1.0403248	0.05369739	-0.55226963	1.429787	-0.11496844	-0.57087433	1.450153	0.21365433	-0.62673698	1.4909757	0.048199318	-0.71009068	1.0954673	-0.15908606	-0.70378358	1.1089075	0.31808197	-0.59414985	0.86197026	-0.20663802	-0.50658895	0.91187762	0.30440136
122	0.484	-0.27164315	0.075748855	-0.015659293	-0.63737949	0.03944095	0.10417104	-0.42307203	0.095977113	-0.047131844	-0.78368757	0.056607446	0.13949927	-0.3991243	0.11625802	0.047539375	-0.77443661	0.093699004	0.047691113	-0.48523056	0.050025046	0.0049613135	-0.85327825	0.035285882	0.091472792	-0.42058012	0.51510816	-0.082629456	-0.65381194	0.49910007	0.19661179	-0.41874248	0.51188972	0.042585384	-0.67962343	0.49096619	0.068260133	-0.60680938	0.89191378	-0.12170896	-0.64880748	0.90673517	0.24872281	-0.53841148	0.98099046	-0.057403579	-0.54477532	0.9901936	0.18236986	-0.70682773	1.0393394	0.05340074	-0.54626356	1.4288116	-0.11516518	-0.56492528	1.4492738	0.21348969	-0.62082789	1.4899887	0.048020872	-0.70459524	1.0948895	-0.15910705	-0.69725552	1.107764	0.3182217	-0.589787	0.86102607	-0.20744182	-0.49911371	0.91170124	0.30399511
123	0.488	-0.25205045	0.078748838	-0.014904439	-0.63735104	0.03940766	0.10424839	-0.40398283	0.094767836	-0.047097566	-0.78372547	0.056644643	0.13939739	-0.38092225	0.11587441	0.047684365	-0.77427981	0.093705698	0.047591026	-0.46496747	0.047229061	0.0046986256	-0.85328445	0.035384027	0.091259511	-0.41399475	0.5138362	-0.082802527	-0.65246355	0.49879131	0.19683484	-0.41238142	0.5106209	0.042392554	-0.67746863	0.49060932	0.068385352	-0.59999938	0.89070063	-0.12175715	-0.6432912	0.90603762	0.24853914	-0.5319098	0.97980165	-0.057355184	-0.53886411	0.98920511	0.18244861	-0.70057843	1.0382622	0.053143957	-0.5402314	1.4277499	-0.1153714	-0.55895443	1.4483126	0.21332053	-0.61491377	1.488936	0.047833905	-0.69900807	1.0942346	-0.1593055	-0.69072168	1.1065317	0.31832581	-0.58530383	0.8600223	-0.20822024	-0.49163918	0.9114471	0.30359357
124	0.492	-0.23276416	0.081985812	-0.014161015	-0.63731733	0.039362673	0.10431313	-0.38512342	0.093850626	-0.047109879	-0.78376304	0.056682662	0.13928894	-0.36289992	0.11573416	0.047768323	-0.77414918	0.093689294	0.047453905	-0.4448391	0.04475449	0.0044252083	-0.85328971	0.03549855	0.091026256	-0.4074655	0.51250563	-0.08301992	-0.65110992	0.49848506	0.19705726	-0.40609228	0.50920373	0.042220431	-0.67510524	0.49023254	0.068465864	-0.59324281	0.88938689	-0.12179721	-0.6377327	0.90527423	0.24831214	-0.5254003	0.97852853	-0.057300334	-0.53292746	0.98815979	0.18252742	-0.69421639	1.037059	0.052930884	-0.53417713	1.4266081	-0.11558494	-0.55297298	1.4472779	0.21314759	-0.60899051	1.4878266	0.047641371	-0.69330944	1.0934939	-0.15967794	-0.68417871	1.1052126	0.31839331	-0.58070845	0.85895121	-0.20897681	-0.4841773	0.9111037	0.30319668
125	0.496	-0.21381564	0.08544765	-0.013466771	-0.6372856	0.039298411	0.104364	-0.36651018	0.093216568	-0.047171321	-0.78380432	0.056724375	0.13916398	-0.34507341	0.11582951	0.047776882	-0.77402157	0.093661527	0.047280085	-0.42488505	0.042601758	0.0041382337	-0.85329323	0.035630099	0.090772698	-0.40098104	0.51113741	-0.083307173	-0.64974282	0.49818834	0.19728107	-0.39984854	0.50764189	0.042074514	-0.67264836	0.48984245	0.068640752	-0.5866441	0.88795421	-0.12182822	-0.63214267	0.90444923	0.24804692	-0.51888258	0.97718352	-0.057229715	-0.52697363	0.98705974	0.18261308	-0.6877984	1.0357382	0.052718004	-0.5281049	1.4254012	-0.11580079	-0.54699888	1.44618	0.21297498	-0.60305098	1.4866644	0.04744389	-0.68756722	1.0926617	-0.16011118	-0.67762434	1.1038119	0.3184237	-0.5760548	0.85779606	-0.20973877	-0.47674093	0.91066651	0.30280637
126	0.5	-0.19522218	0.089123949	-0.012858441	-0.63725566	0.039217791	0.10440749	-0.34815048	0.092844837	-0.04727328	-0.78384147	0.056769444	0.13899761	-0.32747578	0.11612777	0.04768395	-0.77385759	0.093642028	0.047074037	-0.40515269	0.040765554	0.0038469578	-0.85329503	0.035780378	0.09049949	-0.39454321	0.50973348	-0.083665145	-0.64836076	0.49790698	0.19751105	-0.39361767	0.50594336	0.041962301	-0.67037664	0.48945709	0.069193953	-0.5801786	0.88640742	-0.12184112	-0.62652739	0.90357169	0.24775091	-0.51235135	0.97577517	-0.057140188	-0.5210096	0.98590735	0.18271065	-0.68141432	1.0343375	0.052461994	-0.5220212	1.4241423	-0.11602144	-0.5410295	1.4450237	0.21280461	-0.59708902	1.4854473	0.047236702	-0.68187493	1.0917389	-0.16052245	-0.67107164	1.1023457	0.31842632	-0.57138701	0.85655044	-0.21052548	-0.46932926	0.91014165	0.30242982
127	0.504	-0.17699519	0.092989046	-0.012352416	-0.63722081	0.039148231	0.10445917	-0.33005844	0.092720393	-0.047404141	-0.78383591	0.056804572	0.13877844	-0.31015295	0.11658856	0.047485633	-0.77364548	0.093644313	0.046849099	-0.38568309	0.039239069	0.0035478521	-0.85329337	0.03594832	0.090207559	-0.38813037	0.50828369	-0.084048395	-0.6469922	0.49762876	0.19775198	-0.38735158	0.50412637	0.041899481	-0.66843058	0.48908784	0.070320122	-0.57376767	0.88476148	-0.12182693	-0.62088615	0.90264905	0.24742618	-0.50580159	0.97430985	-0.057033574	-0.51504171	0.98470374	0.18282409	-0.67508746	1.0328912	0.052165285	-0.51592864	1.4228325	-0.11625317	-0.53504803	1.443807	0.21263364	-0.59110184	1.4841693	0.047010878	-0.67623395	1.0907283	-0.1609058	-0.66452734	1.1008265	0.31840749	-0.56670877	0.85522392	-0.2113315	-0.46194597	0.90953677	0.30207489
128	0.508	-0.15915844	0.096997672	-0.011940363	-0.63717312	0.039128315	0.10453569	-0.31223672	0.092851057	-0.047558367	-0.78372053	0.05681492	0.13851907	-0.29314957	0.11720942	0.047238398	-0.77339905	0.093671838	0.046624238	-0.36650866	0.038014855	0.0032244699	-0.8532841	0.03613126	0.089898808	-0.38165392	0.50677317	-0.08437867	-0.64571891	0.49729798	0.19799751	-0.38097582	0.5022176	0.041916504	-0.66653656	0.48871179	0.071642494	-0.56735213	0.88303055	-0.12178209	-0.61521749	0.90168063	0.24707573	-0.49923853	0.97279063	-0.056914954	-0.50907543	0.98345075	0.1829523	-0.66877443	1.031401	0.051862526	-0.50982512	1.4214646	-0.11649332	-0.52904884	1.4425278	0.2124635	-0.5850886	1.4828248	0.046764661	-0.67056843	1.0896338	-0.16129055	-0.65798045	1.0992494	0.31836069	-0.56200109	0.85382851	-0.21214378	-0.45461158	0.90885675	0.30174138
129	0.512	-0.14174645	0.10109944	-0.011602365	-0.63711407	0.039163646	0.1046346	-0.29467249	0.093252527	-0.047730632	-0.7834565	0.056817535	0.13824289	-0.27649019	0.11802334	0.047032474	-0.77312542	0.093722518	0.046413436	-0.3476672	0.037085466	0.0028688946	-0.85326431	0.036329878	0.089580067	-0.37500645	0.50518847	-0.084584421	-0.64464545	0.49681497	0.19821191	-0.3743876	0.50025042	0.042072137	-0.66424036	0.48826498	0.072288976	-0.56089386	0.88123113	-0.12170611	-0.60952504	0.90066129	0.24671363	-0.49267492	0.97121503	-0.056790437	-0.50310789	0.98215299	0.18309128	-0.66242786	1.029838	0.051578639	-0.50371062	1.4200355	-0.11673241	-0.52303257	1.4411904	0.21229975	-0.57905055	1.4814187	0.046510958	-0.66481455	1.0884603	-0.16169989	-0.65142961	1.0976083	0.31828251	-0.55724648	0.85236943	-0.21295802	-0.44733875	0.90810408	0.3014264
130	0.516	-0.12478364	0.10525592	-0.011323448	-0.63706386	0.039203978	0.10472223	-0.27738923	0.093914613	-0.047913147	-0.78311546	0.056885016	0.13798101	-0.26018273	0.11905048	0.046916233	-0.77283192	0.093788514	0.046219945	-0.32920262	0.036436756	0.0024807603	-0.85323698	0.036547006	0.08926071	-0.36813721	0.50352799	-0.084632962	-0.64362694	0.49611301	0.19834172	-0.36751901	0.49825435	0.042414285	-0.66144516	0.48770507	0.071830402	-0.55435989	0.87938279	-0.12160218	-0.60381758	0.89958411	0.24635306	-0.48611883	0.96958199	-0.05666118	-0.49712761	0.98080982	0.18323677	-0.65603662	1.028177	0.051314835	-0.49758192	1.4185502	-0.11696033	-0.51699494	1.4397985	0.21214008	-0.57299517	1.4799724	0.046265925	-0.65896085	1.0872135	-0.16213719	-0.64488312	1.0959085	0.31817334	-0.55243262	0.850848	-0.21377357	-0.4401129	0.90727837	0.30113348
131	0.52	-0.10828415	0.10943887	-0.011096062	-0.63704901	0.039180082	0.1047612	-0.26047569	0.094788429	-0.048115502	-0.78287221	0.057121421	0.13776491	-0.24423292	0.12027616	0.046862316	-0.77255112	0.093856092	0.046040533	-0.31114999	0.036037431	0.0020488618	-0.85320816	0.036787096	0.088948702	-0.36106362	0.50180845	-0.084533128	-0.64206152	0.49525644	0.19838924	-0.36046986	0.49623062	0.042888828	-0.65840205	0.48707345	0.070787492	-0.54773372	0.87749763	-0.12147691	-0.5980983	0.89844208	0.24599269	-0.47956959	0.96789622	-0.056525415	-0.49112393	0.97941198	0.18338055	-0.64961316	1.0264285	0.051067682	-0.49142474	1.4170154	-0.11716608	-0.5109415	1.4383496	0.21197761	-0.56693675	1.4785103	0.046029965	-0.65302925	1.0859009	-0.16259327	-0.63833513	1.094157	0.31802429	-0.54754963	0.84926445	-0.21458549	-0.43290683	0.90637985	0.30086642
132	0.524	-0.092266133	0.11361803	-0.010905801	-0.63707222	0.03907283	0.10475606	-0.24402231	0.09581132	-0.048369467	-0.78288004	0.057590226	0.13760045	-0.22864027	0.12165144	0.046784735	-0.77230859	0.093918242	0.0458702	-0.29352806	0.035841378	0.0015401675	-0.85317863	0.037060693	0.08865192	-0.35384874	0.5000618	-0.08432169	-0.63950854	0.49439158	0.19843869	-0.35349486	0.49415643	0.043353141	-0.65525037	0.48645122	0.069964551	-0.54103427	0.87556877	-0.12133853	-0.59235191	0.89723364	0.24562433	-0.47302032	0.96616414	-0.056384863	-0.48509127	0.97795416	0.18351384	-0.6431673	1.0246363	0.050843294	-0.48522603	1.4154364	-0.11734589	-0.50488763	1.4368465	0.2118136	-0.56088552	1.4770389	0.04578869	-0.64704622	1.0845275	-0.16305633	-0.63177802	1.0923569	0.31782857	-0.54259269	0.84761871	-0.21538484	-0.42570244	0.90541306	0.30062351
133	0.528	-0.076748561	0.11775736	-0.01072312	-0.63710838	0.038930801	0.10474984	-0.22805695	0.096940609	-0.04869579	-0.78310852	0.058207123	0.13745955	-0.2134044	0.12310315	0.046600778	-0.77207604	0.093986611	0.045702302	-0.27633879	0.03580331	0.0008807131	-0.85314187	0.037382277	0.088373508	-0.3465824	0.49832674	-0.084058803	-0.63623958	0.4935931	0.19854314	-0.3467698	0.49201872	0.043716664	-0.65198199	0.48586499	0.069659395	-0.53430204	0.87358187	-0.12119634	-0.58655899	0.89596603	0.24524662	-0.46646277	0.96439295	-0.056245339	-0.47903198	0.97644332	0.18363394	-0.6367009	1.0228315	0.050648768	-0.47899312	1.4138169	-0.11751404	-0.49883835	1.4353027	0.21165293	-0.55483196	1.4755394	0.045530902	-0.64103497	1.0830947	-0.16351108	-0.62522383	1.0905155	0.31759486	-0.5375632	0.84591438	-0.21616714	-0.41849975	0.90438511	0.30040214
